HIERARCHY
ROOT RootJoint
{
    OFFSET   0.000000   0.000000   0.000000
    CHANNELS 6 Xposition Yposition Zposition Xrotation Yrotation Zrotation
    JOINT pelvis_lowerback
    {
        OFFSET   0.000000   0.093605   0.000000
        CHANNELS 3 Xrotation Yrotation Zrotation
        JOINT lowerback_torso
        {
            OFFSET   0.000000   0.100000   0.000000
            CHANNELS 3 Xrotation Yrotation Zrotation
            JOINT torso_head
            {
                OFFSET   0.000000   0.282350   0.000000
                CHANNELS 3 Xrotation Yrotation Zrotation
                End Site
                {
                    OFFSET   0.000000   0.192650   0.000000
                }
            }
            JOINT rTorso_Clavicle
            {
                OFFSET  -0.001000   0.157500   0.000000
                CHANNELS 3 Xrotation Yrotation Zrotation
                JOINT rShoulder
                {
                    OFFSET  -0.117647   0.000000   0.000000
                    CHANNELS 3 Xrotation Yrotation Zrotation
                    JOINT rElbow
                    {
                        OFFSET  -0.245000   0.000000   0.000000
                        CHANNELS 3 Xrotation Yrotation Zrotation
                        JOINT rWrist
                        {
                            OFFSET  -0.240000   0.000000   0.000000
                            CHANNELS 3 Xrotation Yrotation Zrotation
                            End Site
                            {
                                OFFSET  -0.116353  -0.002500   0.000000
                            }
                        }
                    }
                }
            }
            JOINT lTorso_Clavicle
            {
                OFFSET   0.001000   0.157500   0.000000
                CHANNELS 3 Xrotation Yrotation Zrotation
                JOINT lShoulder
                {
                    OFFSET   0.117647   0.000000   0.000000
                    CHANNELS 3 Xrotation Yrotation Zrotation
                    JOINT lElbow
                    {
                        OFFSET   0.245000   0.000000   0.000000
                        CHANNELS 3 Xrotation Yrotation Zrotation
                        JOINT lWrist
                        {
                            OFFSET   0.240000   0.000000   0.000000
                            CHANNELS 3 Xrotation Yrotation Zrotation
                            End Site
                            {
                                OFFSET   0.116353  -0.002500   0.000000
                            }
                        }
                    }
                }
            }
        }
    }
    JOINT rHip
    {
        OFFSET  -0.100000  -0.051395   0.000000
        CHANNELS 3 Xrotation Yrotation Zrotation
        JOINT rKnee
        {
            OFFSET   0.000000  -0.410000   0.000000
            CHANNELS 3 Xrotation Yrotation Zrotation
            JOINT rAnkle
            {
                OFFSET   0.000000  -0.390000   0.000000
                CHANNELS 3 Xrotation Yrotation Zrotation
                JOINT rToeJoint
                {
                    OFFSET   0.000000  -0.050000   0.130000
                    CHANNELS 3 Xrotation Yrotation Zrotation
                    End Site
                    {
                        OFFSET  -0.010000   0.002000   0.060000
                    }
                }
            }
        }
    }
    JOINT lHip
    {
        OFFSET   0.100000  -0.051395   0.000000
        CHANNELS 3 Xrotation Yrotation Zrotation
        JOINT lKnee
        {
            OFFSET   0.000000  -0.410000   0.000000
            CHANNELS 3 Xrotation Yrotation Zrotation
            JOINT lAnkle
            {
                OFFSET   0.000000  -0.390000   0.000000
                CHANNELS 3 Xrotation Yrotation Zrotation
                JOINT lToeJoint
                {
                    OFFSET   0.000000  -0.050000   0.130000
                    CHANNELS 3 Xrotation Yrotation Zrotation
                    End Site
                    {
                        OFFSET   0.010000   0.002000   0.060000
                    }
                }
            }
        }
    }
}
MOTION
Frames: 7
Frame Time:   0.008333
 -2.502365   0.958207   5.125282  -1.778316  -5.000509  -2.029475   6.631229   2.461848   0.501826   7.775677   0.178965   2.816523   0.475976  -4.864074   4.406551   2.170429   6.876133  13.810953 -10.713902  -0.769876   5.453423  -0.004237  56.863551   0.003446  14.675165   2.588056 -22.955139   8.025619  -6.542159 -18.891308  22.061027  -1.978033 -25.622955  -0.000000 -29.715283   0.000167  10.746676  -3.905865   9.510405  -1.341948   2.691518  10.322251   5.042345   0.000132   0.001098  27.764881  -3.700877  -6.818448 -45.262739   0.000620   0.000185 -19.526435  -4.633848   7.813145  72.310962  -0.002882  -0.001233 -12.969172  -0.219825  -2.594443  -7.025825  -0.002439  -0.001150
 -2.502655   0.959293   5.128212  -1.823735  -5.603326  -1.883082   6.711401   2.611385   0.512541   7.814605   0.353217   2.706409   0.511582  -4.855519   4.397414   2.115794   7.115111  13.808442 -10.702217  -0.566768   5.370264  -0.004219  56.150176   0.003008  14.704159   2.642586 -22.806002   8.008918  -6.395231 -18.934643  22.181909  -1.890612 -25.740078   0.000029 -29.785568   0.000232  10.735849  -3.899533   9.408725  -1.135939   2.864365  10.143849   5.031922   0.000106   0.000920  28.001086  -3.283411  -7.001701 -45.210192   0.000472   0.000159 -20.112253  -4.894868   7.491630  71.715156   0.001080   0.001910 -13.228704  -0.156346  -2.496901  -6.911174  -0.002480  -0.001675
 -2.502906   0.960439   5.131043  -1.860909  -6.208822  -1.747512   6.797069   2.756570   0.532724   7.858055   0.527592   2.600992   0.545784  -4.847824   4.388010   2.060755   7.346060  13.792215 -10.693506  -0.374534   5.286253  -0.004134  55.473492   0.002678  14.704555   2.628083 -22.636293   8.001193  -6.249208 -18.975842  22.299232  -1.807217 -25.861276   0.000058 -29.854124   0.000296  10.727346  -3.919563   9.289690  -0.959657   3.030319   9.970901   5.038320   0.000085   0.000710  28.280047  -2.870747  -7.152425 -45.168154   0.000351   0.000127 -20.677022  -5.168576   7.173775  70.997340   0.004948   0.005218 -13.475650  -0.097487  -2.404467  -6.794017  -0.002514  -0.002144
 -2.503140   0.961578   5.133821  -1.903094  -6.809947  -1.621710   6.889780   2.898345   0.554911   7.908845   0.697564   2.502550   0.579846  -4.840634   4.379975   2.008139   7.562281  13.768136 -10.686662  -0.193917   5.202759  -0.003954  54.841547   0.002377  14.698889   2.599468 -22.471885   7.999823  -6.106289 -19.012476  22.412177  -1.725026 -25.977869   0.000075 -29.917167   0.000345  10.718397  -3.941725   9.162927  -0.789145   3.185229   9.806174   5.056627   0.000067   0.000493  28.566901  -2.480389  -7.285196 -45.134524   0.000259   0.000092 -21.229763  -5.430576   6.869201  70.277018   0.007891   0.007918 -13.708019  -0.042809  -2.317851  -6.685044  -0.002478  -0.002457
 -2.503364   0.962688   5.136574  -1.952943  -7.405685  -1.504564   6.985332   3.036296   0.576506   7.965567   0.861885   2.410691   0.613692  -4.833790   4.372926   1.958743   7.763488  13.741073 -10.680916  -0.025122   5.121914  -0.003688  54.252007   0.002050  14.692956   2.570430 -22.317046   8.003579  -5.966886 -19.044600  22.520547  -1.643588 -26.088301   0.000081 -29.974210   0.000375  10.708190  -3.956558   9.034364  -0.616973   3.329794   9.649151   5.084681   0.000052   0.000280  28.848283  -2.114863  -7.405538 -45.107619   0.000190   0.000058 -21.767792  -5.675220   6.578850  69.587492   0.009898   0.009917 -13.925784   0.007876  -2.236967  -6.585695  -0.002382  -0.002630
 -2.503582   0.963762   5.139319  -2.009601  -7.995973  -1.395820   7.079817   3.169789   0.597074   8.025338   1.019937   2.325185   0.646726  -4.827279   4.366518   1.912860   7.950417  13.713886 -10.675737   0.132147   5.045134  -0.003357  53.701991   0.001680  14.687724   2.543378 -22.170839   8.011420  -5.831433 -19.073006  22.624222  -1.563297 -26.192583   0.000077 -30.025633   0.000390  10.696740  -3.962209   8.906410  -0.441715   3.464769   9.499677   5.121087   0.000038   0.000073  29.119569  -1.773585  -7.515798 -45.086096   0.000139   0.000028 -22.287746  -5.901925   6.302669  68.937380   0.011135   0.011295 -14.129550   0.054845  -2.161513  -6.495609  -0.002244  -0.002695
 -2.503796   0.964798   5.142066  -2.071353  -8.580878  -1.295396   7.170411   3.298182   0.616775   8.085522   1.171242   2.245908   0.678417  -4.821110   4.360596   1.870503   8.124033  13.688082 -10.670830   0.278461   4.973119  -0.002981  53.188793   0.001271  14.683226   2.518513 -22.031890   8.022320  -5.700483 -19.098428  22.723079  -1.484791 -26.290973   0.000066 -30.072052   0.000392  10.684338  -3.959560   8.780227  -0.263890   3.590730   9.357676   5.164761   0.000025  -0.000123  29.379342  -1.455219  -7.617213 -45.068877   0.000102   0.000004 -22.787025  -6.111366   6.040327  68.327917   0.011783   0.012166 -14.320088   0.098381  -2.091146  -6.414009  -0.002083  -0.002680
